<svg xmlns="http://www.w3.org/2000/svg" width="1440" height="653" fill="none" viewBox="0 0 1440 653"><rect width="1440" height="633.037" x="10" y="14.963" fill="#F2994A"/><g filter="url(#filter0_i)"><path fill="url(#paint0_linear)" d="M729 648C753.308 573.947 815.509 418.899 967.749 377.245C1179.53 329.226 1228.97 327.49 1308.39 222.197C1377.77 130.209 1427.77 101.282 1449.24 18.5514V6.40213C1435.03 18.3302 1442.81 -1.65899 1449.24 6.40213C1454.56 13.068 1458.96 -18.8951 1449.24 18.5514V648H1075.14H729Z"/></g><g filter="url(#filter1_d)"><path fill="url(#paint1_linear)" d="M351.834 378.881C201.713 439.183 345.329 627.152 -17.9651 644.547L-61 8.32012L798.196 8.32012C784.685 37.8385 813.208 106.363 605.54 171.198C469.43 213.368 539.487 303.504 351.834 378.881Z"/></g><defs><filter id="filter0_i" width="726" height="652" x="729" y="0" color-interpolation-filters="sRGB" filterUnits="userSpaceOnUse"><feFlood flood-opacity="0" result="BackgroundImageFix"/><feBlend in="SourceGraphic" in2="BackgroundImageFix" mode="normal" result="shape"/><feColorMatrix in="SourceAlpha" result="hardAlpha" type="matrix" values="0 0 0 0 0 0 0 0 0 0 0 0 0 0 0 0 0 0 127 0"/><feOffset dy="4"/><feGaussianBlur stdDeviation="2"/><feComposite in2="hardAlpha" k2="-1" k3="1" operator="arithmetic"/><feColorMatrix type="matrix" values="0 0 0 0 0 0 0 0 0 0 0 0 0 0 0 0 0 0 0.25 0"/><feBlend in2="shape" mode="normal" result="effect1_innerShadow"/></filter><filter id="filter1_d" width="867.196" height="644.227" x="-65" y="8.32" color-interpolation-filters="sRGB" filterUnits="userSpaceOnUse"><feFlood flood-opacity="0" result="BackgroundImageFix"/><feColorMatrix in="SourceAlpha" type="matrix" values="0 0 0 0 0 0 0 0 0 0 0 0 0 0 0 0 0 0 127 0"/><feOffset dy="4"/><feGaussianBlur stdDeviation="2"/><feColorMatrix type="matrix" values="0 0 0 0 0 0 0 0 0 0 0 0 0 0 0 0 0 0 0.25 0"/><feBlend in2="BackgroundImageFix" mode="normal" result="effect1_dropShadow"/><feBlend in="SourceGraphic" in2="effect1_dropShadow" mode="normal" result="shape"/></filter><linearGradient id="paint0_linear" x1="1181.03" x2="490.15" y1="534.606" y2="158.506" gradientUnits="userSpaceOnUse"><stop stop-color="#EB5757"/><stop offset="1" stop-color="#F2C94C"/></linearGradient><linearGradient id="paint1_linear" x1="-55.996" x2="945.34" y1="8.32" y2="674.132" gradientUnits="userSpaceOnUse"><stop offset=".196" stop-color="#FBD45D"/><stop offset="1" stop-color="#FFBC59" stop-opacity=".6"/></linearGradient></defs></svg>