<svg xmlns="http://www.w3.org/2000/svg" width="94" height="116" fill="none" viewBox="0 0 94 116"><mask id="path-1-inside-1" fill="#fff"><path d="M19.7979 58.9455C24.8189 65.6895 32.2304 70.2854 40.5323 71.8031C48.8341 73.3207 57.4061 71.6467 64.5129 67.1198C71.6197 62.5929 76.7304 55.5513 78.8106 47.4205C80.8907 39.2898 79.7848 30.6772 75.7168 23.3262C71.6487 15.9753 64.9225 10.4351 56.8995 7.82724C48.8766 5.21936 40.1564 5.73859 32.5041 9.27983C24.8518 12.8211 18.8392 19.1197 15.6832 26.9008C12.5273 34.6819 12.464 43.3641 15.5059 51.1899L18.6753 49.973C15.9438 42.9461 16.0007 35.1501 18.8345 28.1634C21.6682 21.1766 27.0671 15.5209 33.9382 12.3411C40.8094 9.16137 48.6394 8.69514 55.8434 11.0368C63.0473 13.3785 69.087 18.3531 72.7397 24.9536C76.3925 31.5542 77.3855 39.2876 75.5177 46.5884C73.6499 53.8892 69.0609 60.2119 62.6795 64.2767C56.2982 68.3415 48.6013 69.8447 41.1469 68.4819C33.6925 67.1192 27.0375 62.9924 22.5291 56.9369L19.7979 58.9455Z"/></mask><path stroke="#FF4063" stroke-width="2" d="M19.7979 58.9455C24.8189 65.6895 32.2304 70.2854 40.5323 71.8031C48.8341 73.3207 57.4061 71.6467 64.5129 67.1198C71.6197 62.5929 76.7304 55.5513 78.8106 47.4205C80.8907 39.2898 79.7848 30.6772 75.7168 23.3262C71.6487 15.9753 64.9225 10.4351 56.8995 7.82724C48.8766 5.21936 40.1564 5.73859 32.5041 9.27983C24.8518 12.8211 18.8392 19.1197 15.6832 26.9008C12.5273 34.6819 12.464 43.3641 15.5059 51.1899L18.6753 49.973C15.9438 42.9461 16.0007 35.1501 18.8345 28.1634C21.6682 21.1766 27.0671 15.5209 33.9382 12.3411C40.8094 9.16137 48.6394 8.69514 55.8434 11.0368C63.0473 13.3785 69.087 18.3531 72.7397 24.9536C76.3925 31.5542 77.3855 39.2876 75.5177 46.5884C73.6499 53.8892 69.0609 60.2119 62.6795 64.2767C56.2982 68.3415 48.6013 69.8447 41.1469 68.4819C33.6925 67.1192 27.0375 62.9924 22.5291 56.9369L19.7979 58.9455Z" mask="url(#path-1-inside-1)"/><mask id="path-2-inside-2" fill="#fff"><path d="M67.0714 58.0923C62.8875 52.4726 57.0197 48.3148 50.3104 46.2156C43.6011 44.1163 36.3951 44.1836 29.7267 46.4078C23.0582 48.632 17.2702 52.8987 13.1933 58.5956C9.11633 64.2924 6.96012 71.1266 7.0341 78.1171C7.10808 85.1076 9.40843 91.8952 13.605 97.5055C17.8016 103.116 23.6787 107.261 30.3927 109.345C37.1067 111.429 44.3126 111.346 50.976 109.107C57.6394 106.868 63.4178 102.588 67.4819 96.8824L64.8393 95.0232C61.1706 100.174 55.9542 104.037 49.939 106.059C43.9238 108.08 37.4189 108.155 31.358 106.273C25.2971 104.392 19.9917 100.65 16.2033 95.5857C12.415 90.521 10.3384 84.3938 10.2716 78.0832C10.2048 71.7727 12.1513 65.6034 15.8316 60.4607C19.512 55.318 24.737 51.4663 30.7567 49.4585C36.7765 47.4507 43.2815 47.3899 49.3382 49.2849C55.3949 51.18 60.6918 54.9333 64.4688 60.0064L67.0714 58.0923Z"/></mask><path stroke="#F9A826" stroke-width="2" d="M67.0714 58.0923C62.8875 52.4726 57.0197 48.3148 50.3104 46.2156C43.6011 44.1163 36.3951 44.1836 29.7267 46.4078C23.0582 48.632 17.2702 52.8987 13.1933 58.5956C9.11633 64.2924 6.96012 71.1266 7.0341 78.1171C7.10808 85.1076 9.40843 91.8952 13.605 97.5055C17.8016 103.116 23.6787 107.261 30.3927 109.345C37.1067 111.429 44.3126 111.346 50.976 109.107C57.6394 106.868 63.4178 102.588 67.4819 96.8824L64.8393 95.0232C61.1706 100.174 55.9542 104.037 49.939 106.059C43.9238 108.08 37.4189 108.155 31.358 106.273C25.2971 104.392 19.9917 100.65 16.2033 95.5857C12.415 90.521 10.3384 84.3938 10.2716 78.0832C10.2048 71.7727 12.1513 65.6034 15.8316 60.4607C19.512 55.318 24.737 51.4663 30.7567 49.4585C36.7765 47.4507 43.2815 47.3899 49.3382 49.2849C55.3949 51.18 60.6918 54.9333 64.4688 60.0064L67.0714 58.0923Z" mask="url(#path-2-inside-2)"/></svg>